# xmcd
#
# Track frame offsets:
#	150
#	6652
#	12485
#	18486
#	24152
#	29735
#	35541
#	40817
#	45592
#	50840
#	57063
#	63036
#	68145
#	72697
#	76970
#	82107
#	87662
#	92047
#	96905
#	102320
#	107596
#	112984
#	117647
#	122951
#	126806
#	132723
#	138946
#	142467
#	146378
#	151766
#	158770
#	167111
#	172526
#	180839
#	186589
#	191252
#	196835
#	202000
#	205855
#	211020
#	214680
#	220959
#	226124
#	230564
#	234168
#	241673
#	248370
#	253451
#	258449
#	263976
#	269893
#	275726
#
# Disc length: 3782 seconds
#
# Revision: 0
# Processed by: cddbd v1.5.2PL0 Copyright (c) Steve Scherf et al.
# Submitted via: EasyCDDAExtractor 16.0.6.1
#
DISCID=000ec434
DTITLE=Βασιλικός Θεόδωρος - Τα απολυτίκια-Θεόδ. Βασιλικός
DYEAR=1900
DGENRE=Βυζ. Εκκλησιαστική
TTITLE0=Του λίθου σφραγισθέντος
TTITLE1=Ότε κατήλθες προς τον θάνατον
TTITLE2=Ευφραινέσθω τα ουράνια
TTITLE3=Το φαιδρόν της Αναστάσεως
TTITLE4=Τον συνάναρχον λόγον
TTITLE5=Αγγελικαί δυνάμεις
TTITLE6=Κατέλυσας τω Σταυρώ Σου τον θάνατον
TTITLE7=Εξ ύψους κατήλθες ο Εύσπλαχνος
TTITLE8=Απολυτίκιον Χριστουγέννων
TTITLE9=Θεοφανείων
TTITLE10=Υπαπαντής του Κυρίου
TTITLE11=Αγίου Πνεύματος
TTITLE12=Μεταμορφώσεως του Σωτήρος
TTITLE13=Υψώσεως Τιμίου Σταυρού
TTITLE14=Περιτομής του Κυρίου
TTITLE15=Αγίου Βασιλείου
TTITLE16=Αναλήψεως του Κυρίου
TTITLE17=Κοιμήσεως της Θεοτόκου
TTITLE18=Ευαγγελισμού της Θεοτόκου
TTITLE19=Εισοδείων της Θεοτόκου
TTITLE20=Γενεσίου της Θεοτόκου
TTITLE21=Αγίων Πατέρων των οικουμενικών συνόδων
TTITLE22=Αγίου Αθανασίου και Κυρίλλου
TTITLE23=Αγίου Ανδρέα
TTITLE24=Παμμεγίστων Ταξιαρχών
TTITLE25=Αγίας Αικατερίνης
TTITLE26=Αγίας Βαρβάρας
TTITLE27=Αγίου Νεκταρίου Αιγίνης
TTITLE28=Αγίου Νικολάου
TTITLE29=Αγίου Σπυρίδωνος
TTITLE30=Αγίου Ιωάννου Προδρόμου και Βαπτιστού
TTITLE31=Αγίου Αντωνίου
TTITLE32=Τριών Ιεραρχών
TTITLE33=Αγίου Χαραλάμπους
TTITLE34=Αγίου Γεωργίου
TTITLE35=Αγίων Κωνσταντίνου και Ελένης
TTITLE36=Αγίας Ειρήνης Μεγαλομάρτυρος
TTITLE37=Αγίων Αποστόλων Πέτρου και Παύλου
TTITLE38=Αγίων Αναργύρων
TTITLE39=Αγίας Μαρίνης
TTITLE40=Προφήτου Ηλιού
TTITLE41=Αγίας Παρασκευής
TTITLE42=Αγίου Παντελεήμονος
TTITLE43=Αποτομής κεφαλής Ιωάννου Προδρόμου [29 Αυγούστου]
TTITLE44=Αποτομής κεφαλής Ιωάννου Προδρόμου [29 Αυγούστου]
TTITLE45=Αγίου Δημητρίου
TTITLE46=Οσίου Ιωάννου του Ρώσου
TTITLE47=Οσίου Παταπίου
TTITLE48=Αγίου Κοσμά του Αιτωλού
TTITLE49=Αγίου Αποστόλου και ευαγγελιστού Ιωάννου Θεολόγου
TTITLE50=Οσίου Χριστοδούλου του εν Πάτμω
TTITLE51=Οσίων Νεκταρίου και Θεοφάνους κτητόρων Ι.Μ. Βαρλαάμ Μετεώρων
EXTD=
EXTT0=
EXTT1=
EXTT2=
EXTT3=
EXTT4=
EXTT5=
EXTT6=
EXTT7=
EXTT8=
EXTT9=
EXTT10=
EXTT11=
EXTT12=
EXTT13=
EXTT14=
EXTT15=
EXTT16=
EXTT17=
EXTT18=
EXTT19=
EXTT20=
EXTT21=
EXTT22=
EXTT23=
EXTT24=
EXTT25=
EXTT26=
EXTT27=
EXTT28=
EXTT29=
EXTT30=
EXTT31=
EXTT32=
EXTT33=
EXTT34=
EXTT35=
EXTT36=
EXTT37=
EXTT38=
EXTT39=
EXTT40=
EXTT41=
EXTT42=
EXTT43=
EXTT44=
EXTT45=
EXTT46=
EXTT47=
EXTT48=
EXTT49=
EXTT50=
EXTT51=
PLAYORDER=
